<?xml version="1.0" encoding="utf-8"?>
<!-- Generator: Adobe Illustrator 24.2.3, SVG Export Plug-In . SVG Version: 6.00 Build 0)  -->
<svg version="1.1" id="Layer_1" xmlns="http://www.w3.org/2000/svg" xmlns:xlink="http://www.w3.org/1999/xlink" x="0px" y="0px"
	 viewBox="0 0 512 512" style="enable-background:new 0 0 512 512;" xml:space="preserve">
<style type="text/css">
	.st0{display:none;}
	.st1{display:inline;}
	.st2{display:inline;fill:#26AAA7;}
	.st3{display:inline;fill:#38E8E3;}
	.st4{display:inline;opacity:0.59;fill:#80A7BA;enable-background:new    ;}
	.st5{display:inline;opacity:0.32;fill:#FFFFFF;enable-background:new    ;}
	.st6{fill:url(#SVGID_1_);}
	.st7{fill:url(#SVGID_2_);}
</style>
<g id="Layer_1_2_" class="st0">
	<g id="Layer_1_1_" class="st1">
	</g>
	<path class="st2" d="M178.9,58H73.3c-21.8,0-39.6,17.7-39.6,39.6v258c0,21.2,17.2,38.4,38.4,38.4h127.5c16.2,0,27.5,7.2,37.9,19.6
		l2.3,2.8c7.1,8.5,30.3,8.2,37-0.7l0,0c9.8-12.9,19.1-20.4,35.3-20.2l135.1,1.6c20.9,0.2,38.1-16.7,38.1-37.6V94.2
		c0-19.9-16.2-36.1-36.1-36.1h-98.7c-34.6,0-67.7,14.6-91.1,40.1l0,0l0,0C240.5,72.9,210.6,58,178.9,58z"/>
	<path class="st3" d="M463.3,68.2v240.4c0,19-15.5,34.3-34.5,34.1l-66.5-0.8l-36.5-0.4l-17.2-0.2h-2.3c-5.9-0.1-11.7,1-17.1,3.1
		c-8,3-15.1,8.3-20.4,15.3l-4.4,5.8l-7.5,9.9l-8.1-9.6l-6.7-8c-9.4-11.2-23.3-17.7-38-17.7H88.5c-1.8,0-3.5-0.1-5.1-0.4
		c-6.3-0.9-12-3.5-16.7-7.3c-2.9-2.4-5.5-5.2-7.5-8.4c-3.5-5.4-5.5-11.9-5.5-18.8V71.3c0-7,2-13.6,5.5-19.1c2.1-3.2,4.6-6.1,7.5-8.6
		c4.7-3.9,10.4-6.6,16.7-7.7c2-0.4,4.1-0.5,6.2-0.5h95.7c14.4,0,28.3,3.4,40.9,9.6c8.3,4.1,15.9,9.5,22.7,16
		c3.5,3.3,6.7,6.9,9.7,10.8c1.9-2.1,3.9-4.1,5.9-6c7.5-7,15.8-12.9,24.8-17.6c6.2-3.2,12.7-5.9,19.3-7.9c5.6-1.7,11.4-3,17.2-3.8
		c5-0.7,10.2-1.1,15.3-1.1h89.5C448.6,35.4,463.3,50.1,463.3,68.2z"/>
	<path class="st4" d="M264.4,65.8v310.5h-15.6V61c3.5,3.3,6.7,6.9,9.7,10.8C260.4,69.7,262.4,67.7,264.4,65.8z"/>
	<path class="st5" d="M155.4,35.4V340H88.5c-12.3,0-23.1-6.4-29.3-16.1V52.2c6.4-10.1,17.6-16.8,30.4-16.8H155.4z"/>
	<path class="st5" d="M362.3,35.4v306.5l-56-0.6c-5.9-0.1-11.7,1-17.1,3.1V48.2c15.8-8.3,33.6-12.8,51.9-12.8H362.3z"/>
	<g id="Layer_2_1_" class="st1">
	</g>
</g>
<linearGradient id="SVGID_1_" gradientUnits="userSpaceOnUse" x1="262.3763" y1="270.8408" x2="501.2763" y2="270.8408">
	<stop  offset="0.1657" style="stop-color:#44A3EA"/>
	<stop  offset="0.793" style="stop-color:#00B7FF"/>
</linearGradient>
<path class="st6" d="M501.3,427.6c0,12.8-14.5,20.2-24.9,12.8c-19.8-14.1-52.4-25.2-99.8-24c-62.7,1.5-82.9,17.7-101.9,34
	c-4.8,4.1-12.3,0.7-12.3-5.7V189.4c0-17.4,5.1-34.6,15-48.9c0.4-0.6,0.9-1.3,1.3-1.9c34.8-47.9,96.9-49.1,104.8-49.1
	c13.7,0,43-0.1,71,19.8c20.1,14.3,31.5,33.3,38.1,50c5.9,15,8.6,31.1,8.6,47.2L501.3,427.6z"/>
<linearGradient id="SVGID_2_" gradientUnits="userSpaceOnUse" x1="194.9895" y1="270.8408" x2="433.8895" y2="270.8408" gradientTransform="matrix(-1 0 0 1 446.9895 0)">
	<stop  offset="0.1657" style="stop-color:#44A3EA"/>
	<stop  offset="0.793" style="stop-color:#00B7FF"/>
</linearGradient>
<path class="st7" d="M13.1,206.5c0-16.1,2.8-32.2,8.6-47.2c6.5-16.7,18-35.7,38.1-50c28-20,57.3-19.9,71-19.8
	c7.9,0,70.1,1.2,104.8,49.1c0.5,0.6,0.9,1.3,1.3,1.9c9.9,14.3,15,31.5,15,48.9l0,255.3c0,6.4-7.5,9.8-12.3,5.7
	c-19-16.3-39.2-32.5-101.9-34c-47.5-1.1-80,9.9-99.8,24c-10.4,7.4-24.9,0-24.9-12.8L13.1,206.5z"/>
</svg>
