<?xml version="1.0" encoding="utf-8"?>
<!-- Generator: Adobe Illustrator 24.2.3, SVG Export Plug-In . SVG Version: 6.00 Build 0)  -->
<svg version="1.1" id="Layer_1" xmlns="http://www.w3.org/2000/svg" xmlns:xlink="http://www.w3.org/1999/xlink" x="0px" y="0px"
	 viewBox="0 0 512 512" style="enable-background:new 0 0 512 512;" xml:space="preserve">
<style type="text/css">
	.st0{fill:url(#SVGID_1_);stroke:url(#SVGID_2_);stroke-width:10;stroke-miterlimit:10;}
	.st1{fill:none;stroke:#1C2133;stroke-width:13;stroke-linecap:round;stroke-linejoin:round;stroke-miterlimit:10;}
</style>
<linearGradient id="SVGID_1_" gradientUnits="userSpaceOnUse" x1="252.8486" y1="397.3658" x2="259.1112" y2="41.5748" gradientTransform="matrix(1 0 0 -1 0 512)">
	<stop  offset="1.065558e-07" style="stop-color:#32E0D3"/>
	<stop  offset="1" style="stop-color:#028C82"/>
</linearGradient>
<linearGradient id="SVGID_2_" gradientUnits="userSpaceOnUse" x1="256" y1="12.239" x2="256" y2="484.78">
	<stop  offset="0" style="stop-color:#FFFFFF"/>
	<stop  offset="1" style="stop-color:#028C82"/>
</linearGradient>
<path class="st0" d="M432.4,171.4c3.6-12.2,5.6-25.8,5.3-37.7c-1.1-50.3-32.4-113.4-48.6-116.4c-13.4-2.5-51.2,62.2-59.5,97.9
	c-0.1,0.6-0.3,1.1-0.4,1.7c-23-6-47.6-9.3-73.2-9.3c-29.2,0-57.1,4.2-82.8,12c-0.3-1.4-0.6-2.9-1-4.4
	c-8.3-35.7-46.1-100.4-59.5-97.9c-16.1,3-47.5,66.1-48.6,116.4c-0.3,14.3,2.6,31.2,7.8,45.1C40.7,210.4,22,250.3,22,293.7
	c0,102.8,104.8,186.1,234,186.1s234-83.3,234-186.1C490,246.9,468.2,204.1,432.4,171.4z M152.3,345.9c-18.4,1.3-34.8-19.4-36.7-46.2
	c-1.9-26.9,11.4-49.7,29.8-51s34.8,19.4,36.7,46.3C184,321.7,170.7,344.5,152.3,345.9z M379.6,299.8c-2.3,26.6-19,47-37.3,45.4
	s-31.4-24.4-29.1-51.1c2.3-26.6,19-47,37.3-45.4C368.9,250.3,381.9,273.1,379.6,299.8z"/>
<path class="st1" d="M193.9,357.5c9.5,18.9,30.8,31.2,54.3,31.2c16.1,0,44.5-11.9,54.3-30.5"/>
</svg>
