<?xml version="1.0" encoding="utf-8"?>
<!-- Generator: Adobe Illustrator 24.2.3, SVG Export Plug-In . SVG Version: 6.00 Build 0)  -->
<svg version="1.1" id="Layer_1" xmlns="http://www.w3.org/2000/svg" xmlns:xlink="http://www.w3.org/1999/xlink" x="0px" y="0px"
	 viewBox="0 0 512 512" style="enable-background:new 0 0 512 512;" xml:space="preserve">
<style type="text/css">
	.st0{fill:url(#SVGID_1_);}
	.st1{fill:url(#SVGID_2_);}
</style>
<g>
	<linearGradient id="SVGID_1_" gradientUnits="userSpaceOnUse" x1="222.6608" y1="147.981" x2="331.0831" y2="507.4204">
		<stop  offset="0.4964" style="stop-color:#00E1FF"/>
		<stop  offset="1" style="stop-color:#03ACEF"/>
	</linearGradient>
	<path class="st0" d="M256.2,9.1C101.5,9-20.2,150.2,13.1,310.7c19.7,94.7,93.8,169.3,188.4,189.4c64.5,13.7,125.9,2.3,176.4-26.2
		c33.2-18.7,42.6-62.4,20-93.1c-0.1-0.2-0.3-0.4-0.4-0.6c-15.4-20.7-32.7-34.6-46.6-43.8c-19.8-13-32.5-34.8-33.4-58.5
		c0-0.7,0-1.5-0.1-2.2c-0.2-17.9,6.3-34.5,19.6-45.7c10.2-8.6,22.8-12.7,36.1-12.7c3.8,0,7.7,0.3,11.6,1
		c25.3,4.4,45.9,22.8,54.4,47.1c3.8,10.8,9.7,23.6,19.1,36.5c5.2,7.1,10.7,13.3,16.3,18.6c8,7.6,21.2,3.7,23.6-7.1
		c3.9-17,6.1-34.8,6.3-53C506.1,123.4,393.4,9.2,256.2,9.1z M148.2,383c-24.1,1.5-44-18.3-42.4-42.4c1.3-19.9,17.4-36,37.3-37.3
		c24.1-1.5,44,18.3,42.4,42.4C184.2,365.6,168.1,381.8,148.2,383z M197.1,254.2c-35.2,1.1-64-27.6-62.8-62.8
		c1-31.9,27-57.8,58.8-58.8c35.2-1.1,64,27.6,62.8,62.8C255,227.2,229,253.2,197.1,254.2z"/>
	<linearGradient id="SVGID_2_" gradientUnits="userSpaceOnUse" x1="256.005" y1="3.0943" x2="256.005" y2="511.9218">
		<stop  offset="0" style="stop-color:#FFFFFF"/>
		<stop  offset="1" style="stop-color:#03B3F1"/>
	</linearGradient>
	<path class="st1" d="M256,9.1c0,0,0.1,0,0.1,0c137.2,0.1,250,114.4,248.3,251.5c-0.2,18.2-2.4,35.9-6.3,53
		c-1.6,6.9-7.7,11.1-13.9,11.1c-3.4,0-6.9-1.2-9.8-4c-5.6-5.3-11.1-11.5-16.3-18.6c-9.4-12.9-15.3-25.7-19.1-36.5
		c-8.5-24.3-29-42.7-54.4-47.1c-3.9-0.7-7.7-1-11.6-1c-13.3,0-25.9,4.1-36.1,12.7c-13.3,11.2-19.8,27.8-19.6,45.7
		c0,0.8,0,1.5,0.1,2.2c0.9,23.7,13.6,45.5,33.4,58.5c13.9,9.1,31.2,23.1,46.6,43.8c0.1,0.2,0.3,0.4,0.4,0.6
		c22.6,30.7,13.2,74.3-20,93.1c-36,20.3-77.6,32-122,32c-17.8,0-36-1.9-54.5-5.8C106.9,480,32.8,405.5,13.1,310.7
		C-20.2,150.3,101.4,9.1,256,9.1 M195.2,254.2c0.7,0,1.3,0,2,0c31.9-1,57.8-27,58.8-58.8c1.1-34.5-26.6-62.9-60.8-62.9
		c-0.7,0-1.3,0-2,0c-31.9,1-57.8,27-58.8,58.8C133.2,225.9,160.9,254.2,195.2,254.2 M145.6,383.1c0.9,0,1.7,0,2.6-0.1
		c19.9-1.3,36-17.4,37.3-37.3c1.5-23.2-16.9-42.5-39.9-42.5c-0.9,0-1.7,0-2.6,0.1c-19.9,1.3-36,17.4-37.3,37.3
		C104.3,363.8,122.7,383.1,145.6,383.1 M256.2,3.1C256.2,3.1,256.2,3.1,256.2,3.1H256C179.1,3.1,107.2,37.3,58.6,97
		C35,126,18.4,159,9.3,195.1c-9.6,38-10.3,77.3-2,116.8c9.9,47.6,33.3,91.1,67.7,125.7c34.4,34.6,77.8,58.2,125.3,68.3
		c18.5,3.9,37.2,5.9,55.7,5.9c43.8,0,87-11.3,124.9-32.7c17.3-9.8,29.7-26.6,33.9-46.1c4.2-19.4-0.2-39.8-11.9-55.8
		c-0.2-0.2-0.3-0.4-0.5-0.6c-13.2-17.7-29.4-32.9-48.1-45.2c-18.4-12.1-29.9-32.1-30.7-53.7c0-0.7,0-1.4-0.1-2.1
		c-0.2-16.8,6-31.4,17.4-41c8.7-7.4,19.9-11.3,32.2-11.3c3.5,0,7,0.3,10.5,0.9c22.8,3.9,41.8,20.5,49.7,43.1
		c4.8,13.7,11.5,26.5,19.9,38.1c5,6.9,10.8,13.5,17,19.4c3.8,3.6,8.7,5.6,13.9,5.6c9.5,0,17.6-6.5,19.7-15.7
		c4.1-17.7,6.3-35.9,6.5-54.2c0.4-34.3-6.1-67.8-19.2-99.6c-12.7-30.6-31.1-58.2-54.6-81.9c-23.5-23.8-50.8-42.5-81.2-55.6
		C323.9,10,290.5,3.1,256.2,3.1L256.2,3.1z M195.2,248.2c-15,0-29-5.9-39.4-16.7c-10.4-10.8-15.9-25-15.4-40
		c0.9-28.8,24.2-52.1,53-53c0.6,0,1.2,0,1.8,0c0,0,0,0,0,0c15,0,29,5.9,39.4,16.7c10.4,10.8,15.9,25,15.4,40
		c-0.9,28.8-24.2,52.1-53,53C196.4,248.2,195.8,248.2,195.2,248.2L195.2,248.2z M145.6,377.1c-9.5,0-18.3-3.8-24.7-10.7
		c-6.5-6.9-9.7-15.9-9.1-25.4c1.1-17,14.7-30.6,31.6-31.6c0.7,0,1.5-0.1,2.2-0.1c0,0,0,0,0,0c9.5,0,18.3,3.8,24.7,10.7
		c6.5,6.9,9.7,15.9,9.1,25.4c-1.1,17-14.7,30.6-31.6,31.6C147.1,377.1,146.3,377.1,145.6,377.1L145.6,377.1z"/>
</g>
</svg>
